HIERARCHY
ROOT mixamorig:Hips
{
	OFFSET 0.000000 201.639420 0.000000
	CHANNELS 6 Xposition Yposition Zposition Xrotation Yrotation Zrotation
	JOINT mixamorig:Spine
	{
		OFFSET 0.006200 19.524994 -2.481800
		CHANNELS 3 Xrotation Yrotation Zrotation
		JOINT mixamorig:Spine1
		{
			OFFSET -0.000900 22.835007 -2.825400
			CHANNELS 3 Xrotation Yrotation Zrotation
			JOINT mixamorig:Spine2
			{
				OFFSET -0.020600 26.552490 -3.193300
				CHANNELS 3 Xrotation Yrotation Zrotation
				JOINT mixamorig:Neck
				{
					OFFSET -0.060000 30.701813 1.352200
					CHANNELS 3 Xrotation Yrotation Zrotation
					JOINT mixamorig:Head
					{
						OFFSET -0.087200 22.547607 3.670900
						CHANNELS 3 Xrotation Yrotation Zrotation
						JOINT mixamorig:HeadTop_End
						{
							OFFSET -0.830600 40.355194 7.893500
							CHANNELS 3 Xrotation Yrotation Zrotation
							End Site
							{
								OFFSET 0.000000 30.592346 0.000000
							}
						}
						JOINT mixamorig:RightEye
						{
							OFFSET -6.302100 18.118591 16.197100
							CHANNELS 3 Xrotation Yrotation Zrotation
							End Site
							{
								OFFSET 0.000000 30.592346 0.000000
							}
						}
						JOINT mixamorig:LeftEye
						{
							OFFSET 6.741500 18.382690 16.401899
							CHANNELS 3 Xrotation Yrotation Zrotation
							End Site
							{
								OFFSET 0.000000 30.592346 0.000000
							}
						}
					}
				}
				JOINT mixamorig:LeftShoulder
				{
					OFFSET 11.924900 18.230499 1.425400
					CHANNELS 3 Xrotation Yrotation Zrotation
					JOINT mixamorig:LeftArm
					{
						OFFSET 25.435989 -0.697632 -5.229300
						CHANNELS 3 Xrotation Yrotation Zrotation
						JOINT mixamorig:LeftForeArm
						{
							OFFSET 54.684776 0.000000 0.000000
							CHANNELS 3 Xrotation Yrotation Zrotation
							JOINT mixamorig:LeftHand
							{
								OFFSET 55.098175 0.000000 0.000000
								CHANNELS 3 Xrotation Yrotation Zrotation
								JOINT mixamorig:LeftHandMiddle1
								{
									OFFSET 23.369751 0.000000 0.000000
									CHANNELS 3 Xrotation Yrotation Zrotation
									JOINT mixamorig:LeftHandMiddle2
									{
										OFFSET 6.378677 0.000000 0.000000
										CHANNELS 3 Xrotation Yrotation Zrotation
										JOINT mixamorig:LeftHandMiddle3
										{
											OFFSET 6.148331 0.000000 0.000000
											CHANNELS 3 Xrotation Yrotation Zrotation
											JOINT mixamorig:LeftHandMiddle4
											{
												OFFSET 6.582504 0.000000 0.000000
												CHANNELS 3 Xrotation Yrotation Zrotation
												End Site
												{
													OFFSET -1.168900 6.395691 1.028606
												}
											}
										}
									}
								}
								JOINT mixamorig:LeftHandThumb1
								{
									OFFSET 7.235672 -3.848206 5.434273
									CHANNELS 3 Xrotation Yrotation Zrotation
									JOINT mixamorig:LeftHandThumb2
									{
										OFFSET 6.568451 -3.792297 3.792300
										CHANNELS 3 Xrotation Yrotation Zrotation
										JOINT mixamorig:LeftHandThumb3
										{
											OFFSET 6.063080 -3.500519 3.500518
											CHANNELS 3 Xrotation Yrotation Zrotation
											JOINT mixamorig:LeftHandThumb4
											{
												OFFSET 4.793182 -2.767334 2.767349
												CHANNELS 3 Xrotation Yrotation Zrotation
												End Site
												{
													OFFSET 0.101639 6.054260 1.275483
												}
											}
										}
									}
								}
								JOINT mixamorig:LeftHandIndex1
								{
									OFFSET 23.101074 -0.309540 4.992809
									CHANNELS 3 Xrotation Yrotation Zrotation
									JOINT mixamorig:LeftHandIndex2
									{
										OFFSET 6.226883 0.000000 0.000000
										CHANNELS 3 Xrotation Yrotation Zrotation
										JOINT mixamorig:LeftHandIndex3
										{
											OFFSET 6.094330 0.000000 0.000000
											CHANNELS 3 Xrotation Yrotation Zrotation
											JOINT mixamorig:LeftHandIndex4
											{
												OFFSET 5.482605 0.000000 0.000000
												CHANNELS 3 Xrotation Yrotation Zrotation
												End Site
												{
													OFFSET -1.427902 5.233032 0.797164
												}
											}
										}
									}
								}
								JOINT mixamorig:LeftHandRing1
								{
									OFFSET 22.299240 0.021149 -3.964172
									CHANNELS 3 Xrotation Yrotation Zrotation
									JOINT mixamorig:LeftHandRing2
									{
										OFFSET 6.321869 0.000000 0.000000
										CHANNELS 3 Xrotation Yrotation Zrotation
										JOINT mixamorig:LeftHandRing3
										{
											OFFSET 5.899796 0.000000 0.000000
											CHANNELS 3 Xrotation Yrotation Zrotation
											JOINT mixamorig:LeftHandRing4
											{
												OFFSET 6.517899 0.000000 0.000000
												CHANNELS 3 Xrotation Yrotation Zrotation
												End Site
												{
													OFFSET -1.637299 6.232208 0.980890
												}
											}
										}
									}
								}
								JOINT mixamorig:LeftHandPinky1
								{
									OFFSET 20.463791 -0.302338 -8.562233
									CHANNELS 3 Xrotation Yrotation Zrotation
									JOINT mixamorig:LeftHandPinky2
									{
										OFFSET 6.908646 0.000000 0.000000
										CHANNELS 3 Xrotation Yrotation Zrotation
										JOINT mixamorig:LeftHandPinky3
										{
											OFFSET 4.622849 0.000000 0.000000
											CHANNELS 3 Xrotation Yrotation Zrotation
											JOINT mixamorig:LeftHandPinky4
											{
												OFFSET 5.216080 0.000000 0.000000
												CHANNELS 3 Xrotation Yrotation Zrotation
												End Site
												{
													OFFSET -0.606308 5.116241 0.814926
												}
											}
										}
									}
								}
							}
						}
					}
				}
				JOINT mixamorig:RightShoulder
				{
					OFFSET -12.001300 18.284088 1.348900
					CHANNELS 3 Xrotation Yrotation Zrotation
					JOINT mixamorig:RightArm
					{
						OFFSET -25.308500 -0.751312 -5.164599
						CHANNELS 3 Xrotation Yrotation Zrotation
						JOINT mixamorig:RightForeArm
						{
							OFFSET -54.684429 0.000000 0.000000
							CHANNELS 3 Xrotation Yrotation Zrotation
							JOINT mixamorig:RightHand
							{
								OFFSET -55.150291 0.000000 0.000000
								CHANNELS 3 Xrotation Yrotation Zrotation
								JOINT mixamorig:RightHandMiddle1
								{
									OFFSET -23.317566 0.000000 0.000000
									CHANNELS 3 Xrotation Yrotation Zrotation
									JOINT mixamorig:RightHandMiddle2
									{
										OFFSET -6.378403 0.000000 0.000000
										CHANNELS 3 Xrotation Yrotation Zrotation
										JOINT mixamorig:RightHandMiddle3
										{
											OFFSET -6.148193 0.000000 0.000000
											CHANNELS 3 Xrotation Yrotation Zrotation
											JOINT mixamorig:RightHandMiddle4
											{
												OFFSET -6.583389 0.000000 0.000000
												CHANNELS 3 Xrotation Yrotation Zrotation
												End Site
												{
													OFFSET 1.171692 6.395905 1.029786
												}
											}
										}
									}
								}
								JOINT mixamorig:RightHandThumb1
								{
									OFFSET -7.190521 -3.860474 5.435846
									CHANNELS 3 Xrotation Yrotation Zrotation
									JOINT mixamorig:RightHandThumb2
									{
										OFFSET -6.567429 -3.791718 3.791708
										CHANNELS 3 Xrotation Yrotation Zrotation
										JOINT mixamorig:RightHandThumb3
										{
											OFFSET -6.062469 -3.500153 3.500166
											CHANNELS 3 Xrotation Yrotation Zrotation
											JOINT mixamorig:RightHandThumb4
											{
												OFFSET -4.792618 -2.767029 2.767022
												CHANNELS 3 Xrotation Yrotation Zrotation
												End Site
												{
													OFFSET -0.100327 6.053253 1.276754
												}
											}
										}
									}
								}
								JOINT mixamorig:RightHandIndex1
								{
									OFFSET -23.048981 -0.310791 4.992554
									CHANNELS 3 Xrotation Yrotation Zrotation
									JOINT mixamorig:RightHandIndex2
									{
										OFFSET -6.227539 0.000000 0.000000
										CHANNELS 3 Xrotation Yrotation Zrotation
										JOINT mixamorig:RightHandIndex3
										{
											OFFSET -6.095047 0.000000 0.000000
											CHANNELS 3 Xrotation Yrotation Zrotation
											JOINT mixamorig:RightHandIndex4
											{
												OFFSET -5.484772 0.000000 0.000000
												CHANNELS 3 Xrotation Yrotation Zrotation
												End Site
												{
													OFFSET 1.420593 5.237305 0.797056
												}
											}
										}
									}
								}
								JOINT mixamorig:RightHandRing1
								{
									OFFSET -22.246323 0.020569 -3.963762
									CHANNELS 3 Xrotation Yrotation Zrotation
									JOINT mixamorig:RightHandRing2
									{
										OFFSET -6.322128 0.000000 0.000000
										CHANNELS 3 Xrotation Yrotation Zrotation
										JOINT mixamorig:RightHandRing3
										{
											OFFSET -5.900024 0.000000 0.000000
											CHANNELS 3 Xrotation Yrotation Zrotation
											JOINT mixamorig:RightHandRing4
											{
												OFFSET -6.518356 0.000000 0.000000
												CHANNELS 3 Xrotation Yrotation Zrotation
												End Site
												{
													OFFSET 1.636398 6.232697 0.982186
												}
											}
										}
									}
								}
								JOINT mixamorig:RightHandPinky1
								{
									OFFSET -20.411011 -0.303314 -8.561701
									CHANNELS 3 Xrotation Yrotation Zrotation
									JOINT mixamorig:RightHandPinky2
									{
										OFFSET -6.907349 0.000000 0.000000
										CHANNELS 3 Xrotation Yrotation Zrotation
										JOINT mixamorig:RightHandPinky3
										{
											OFFSET -4.623840 0.000000 0.000000
											CHANNELS 3 Xrotation Yrotation Zrotation
											JOINT mixamorig:RightHandPinky4
											{
												OFFSET -5.218353 0.000000 0.000000
												CHANNELS 3 Xrotation Yrotation Zrotation
												End Site
												{
													OFFSET 0.602097 5.118835 0.816273
												}
											}
										}
									}
								}
							}
						}
					}
				}
			}
		}
	}
	JOINT mixamorig:LeftUpLeg
	{
		OFFSET 18.168400 -13.561905 -0.039000
		CHANNELS 3 Xrotation Yrotation Zrotation
		JOINT mixamorig:LeftLeg
		{
			OFFSET 0.577358 -80.825211 -3.695000
			CHANNELS 3 Xrotation Yrotation Zrotation
			JOINT mixamorig:LeftFoot
			{
				OFFSET -0.577356 -83.370262 -6.520700
				CHANNELS 3 Xrotation Yrotation Zrotation
				JOINT mixamorig:LeftToeBase
				{
					OFFSET 0.750401 -20.798306 25.135401
					CHANNELS 3 Xrotation Yrotation Zrotation
					JOINT mixamorig:LeftToe_End
					{
						OFFSET -0.000500 0.001200 19.917799
						CHANNELS 3 Xrotation Yrotation Zrotation
						End Site
						{
							OFFSET 0.000000 19.917805 0.000000
						}
					}
				}
			}
		}
	}
	JOINT mixamorig:RightUpLeg
	{
		OFFSET -18.162500 -13.585098 -0.041000
		CHANNELS 3 Xrotation Yrotation Zrotation
		JOINT mixamorig:RightLeg
		{
			OFFSET -0.595024 -80.945297 -3.631900
			CHANNELS 3 Xrotation Yrotation Zrotation
			JOINT mixamorig:RightFoot
			{
				OFFSET 0.595024 -83.218193 -6.561200
				CHANNELS 3 Xrotation Yrotation Zrotation
				JOINT mixamorig:RightToeBase
				{
					OFFSET -0.753601 -20.807106 25.115000
					CHANNELS 3 Xrotation Yrotation Zrotation
					JOINT mixamorig:RightToe_End
					{
						OFFSET 0.000299 0.001700 19.918200
						CHANNELS 3 Xrotation Yrotation Zrotation
						End Site
						{
							OFFSET 0.000000 19.918203 0.000000
						}
					}
				}
			}
		}
	}
}
MOTION
Frames: 5
Frame Time: 0.033333
-8.491848 182.538361 -114.688828 30.040658 -4.375954 -17.843331 16.333634 -1.670484 -6.210609 7.926973 -0.780510 -2.933904 7.946858 -0.748730 -2.891572 9.740897 0.607208 -3.382530 -6.585230 -3.252515 7.693910 -0.000001 0.000001 -0.000001 -0.000001 0.000001 -0.000001 -0.000001 0.000001 -0.000001 1.263634 -9.346701 3.320509 -35.009675 -34.336071 -41.448795 -0.000014 -55.929752 0.000008 9.214543 -12.998898 43.365144 -0.199371 -0.836982 -8.521108 2.495358 5.307583 -50.336732 0.229394 1.765842 -14.801184 -0.000000 0.000000 0.000004 -16.817136 -14.505753 -6.907955 3.875491 7.215754 0.688252 15.949550 34.536462 -6.804442 0.000003 0.000005 -0.000002 -0.447186 -3.567191 -6.716750 2.497140 5.309046 -50.355717 0.831713 3.285460 -28.403719 -0.000003 0.000001 0.000001 0.489605 2.862441 -13.366787 1.822229 4.670595 -42.608192 0.056019 0.878260 -7.297840 0.000000 0.000001 -0.000003 2.689774 10.024660 -16.144317 0.453690 -1.605099 -21.271571 0.004912 0.260645 -2.160409 0.000000 -0.000001 -0.000001 -0.050198 -3.947686 -0.194917 0.030119 45.626797 51.261683 -0.000019 34.148856 0.000016 -21.415872 -1.389406 8.339998 0.893027 -3.428159 31.977436 3.876768 -6.235513 63.709539 0.324016 -2.098905 17.503659 -0.000001 0.000005 0.000001 -9.597397 -0.038554 -16.219760 7.118986 -12.541621 0.544103 1.536341 2.593199 -0.703630 0.000001 -0.000003 0.000002 0.126665 -1.429902 16.241917 1.340520 -4.109177 36.122360 0.055845 -0.881300 7.251475 0.000001 0.000003 0.000002 7.266141 -8.957736 52.632775 3.804625 -6.199552 63.043418 0.083311 -1.483464 12.135631 -0.000000 -0.000001 -0.000000 5.295529 -6.752588 74.587674 2.148160 -5.029553 46.233431 0.128328 -1.332360 11.002350 0.000000 0.000002 -0.000000 -74.654999 -16.500627 15.827616 49.333975 8.945247 6.943829 -2.783706 1.140805 -0.360214 -0.210907 0.000326 -0.187469 -0.000000 0.000000 0.000001 -63.127176 -22.108276 4.482597 25.193549 -10.063522 7.316608 11.251836 -13.613834 0.481016 -3.349019 0.022849 -1.570288 -0.000000 -0.000001 -0.000000 
-8.567966 183.738937 -113.783562 28.888671 -1.390439 -18.335754 15.924422 -1.408648 -6.323938 7.689529 -0.589892 -3.004122 7.702789 -0.568081 -2.976166 9.461048 0.623289 -3.246679 -5.615268 -2.755318 7.082907 0.000002 -0.000000 -0.000000 0.000002 -0.000000 -0.000000 0.000002 -0.000000 -0.000000 1.213012 -9.113450 2.847598 -31.863273 -36.683570 -43.628001 0.000013 -53.545162 0.000028 7.012948 -15.041528 43.296521 -0.300167 -1.459232 -8.756129 2.340042 5.175415 -48.636414 0.212004 1.698740 -14.226319 0.000001 -0.000001 -0.000001 -16.121075 -13.919079 -6.601719 3.875507 7.215835 0.688202 14.992999 33.312697 -6.246311 0.000000 -0.000001 -0.000001 -0.558033 -3.885745 -7.641534 2.486447 5.300197 -50.240273 0.808649 3.242640 -27.999537 -0.000000 0.000002 -0.000000 0.396357 2.511480 -12.844598 1.577491 4.390542 -39.510739 0.049966 0.829805 -6.893056 0.000000 0.000001 -0.000002 3.097354 10.999854 -16.783528 0.320590 -1.978086 -17.993724 0.005289 0.270826 -2.244771 0.000001 0.000001 0.000002 -0.066072 -3.953895 -0.430619 6.172825 45.742351 48.142582 -0.000009 40.307771 0.000014 -17.508398 -1.837362 4.432641 0.805505 -3.316258 33.552293 3.865198 -6.229793 63.602810 0.320567 -2.085055 17.386441 -0.000001 0.000004 0.000001 -9.398568 -0.697758 -15.513197 7.822494 -13.693104 0.752697 2.149969 1.527754 -0.653238 0.000000 -0.000003 -0.000003 -0.008337 -1.139086 18.990737 1.285677 -4.033144 35.349832 0.062620 -0.932964 7.679278 -0.000004 0.000001 0.000002 7.448765 -9.048053 53.007404 3.761148 -6.177375 62.639836 0.079403 -1.484600 12.138015 -0.000002 -0.000000 -0.000003 5.493609 -6.805169 74.823022 2.189093 -5.068308 46.698717 0.131879 -1.350555 11.154557 0.000000 -0.000002 0.000001 -72.793007 -15.121962 15.072610 47.683678 7.796582 6.633755 -2.512747 -0.243212 0.402827 -0.582433 0.000299 -0.178019 -0.000000 -0.000001 -0.000000 -61.597726 -20.708220 3.087921 25.443841 -10.945598 7.450459 11.116193 -14.954294 1.215132 -3.420528 0.048606 -2.287911 0.000000 0.000000 0.000000 
-8.890762 185.188095 -112.727180 27.942680 1.946626 -18.799372 15.457775 -1.102891 -6.283842 7.421277 -0.382681 -3.019182 7.427397 -0.376562 -3.005509 9.128126 0.659442 -3.251765 -4.513014 -2.430791 6.788179 -0.000003 0.000000 0.000002 -0.000003 0.000000 0.000002 -0.000003 0.000000 0.000002 1.144655 -8.977379 1.760454 -28.225144 -38.442029 -45.432465 -0.000010 -51.479204 -0.000003 5.592546 -16.440392 41.258348 -0.400294 -2.190191 -8.614878 2.120134 4.973969 -46.150909 0.176298 1.551180 -12.967211 -0.000001 0.000002 0.000001 -15.111163 -13.030076 -6.188073 3.875733 7.216370 0.687855 14.037693 32.036678 -5.693748 0.000001 -0.000000 -0.000001 -0.758906 -4.380377 -9.126661 2.456341 5.275100 -49.913387 0.777646 3.183688 -27.446104 -0.000000 -0.000001 -0.000001 0.305556 2.175077 -11.779182 1.300438 4.032050 -35.739306 0.041279 0.754463 -6.264710 -0.000001 0.000000 0.000001 3.517993 12.213375 -16.951394 0.206030 -2.369281 -14.620018 0.006791 0.306521 -2.540889 -0.000001 0.000003 -0.000002 -0.078920 -3.833485 -0.796956 11.243243 45.524655 45.852590 0.000019 45.969106 -0.000015 -14.982239 -2.323720 2.282271 0.744457 -3.254258 34.750008 3.813888 -6.204221 63.128918 0.314036 -2.061528 17.186180 0.000001 -0.000002 -0.000002 -9.135166 -1.438044 -14.907489 8.450443 -14.701144 0.940060 2.686103 0.605800 -0.607855 -0.000001 0.000002 -0.000000 -0.121790 -0.959372 20.875478 1.235069 -3.961006 34.623769 0.062406 -0.931424 7.666378 -0.000001 0.000002 -0.000003 7.576683 -9.083858 53.472807 3.728448 -6.160423 62.335660 0.076380 -1.482745 12.118004 -0.000005 -0.000000 -0.000001 5.606093 -6.833303 75.078075 2.197341 -5.076039 46.792069 0.133292 -1.357604 11.213463 0.000001 0.000002 0.000002 -70.717395 -13.537001 14.283391 45.507430 4.901109 6.278948 -1.865075 -0.251035 1.114695 -0.831859 0.000174 -0.135159 -0.000000 0.000001 -0.000001 -59.888772 -19.359210 1.666933 25.513221 -11.948519 7.541209 10.967380 -16.637376 2.471605 -3.374216 0.106765 -3.385766 0.000000 -0.000000 0.000000 
-9.480629 186.712494 -111.642113 27.290262 5.478066 -19.433835 14.979363 -0.822850 -6.177153 7.160610 -0.189641 -2.997116 7.160621 -0.196844 -2.996181 8.749767 0.698356 -3.231734 -3.484843 -2.136843 6.620849 0.000000 0.000002 0.000002 0.000000 0.000002 0.000002 0.000000 0.000002 0.000002 1.068897 -8.845252 0.453131 -25.713620 -39.604340 -47.670574 -0.000003 -48.900391 0.000019 4.401497 -15.682022 38.006362 -0.408911 -2.429063 -8.186330 1.907780 4.761588 -43.648454 0.137097 1.369970 -11.429931 -0.000002 0.000001 -0.000003 -14.259353 -12.196174 -5.950066 3.875764 7.216541 0.687767 13.355901 31.091298 -5.302304 0.000002 -0.000001 0.000002 -1.064974 -4.966642 -11.139418 2.408530 5.234679 -49.391622 0.748008 3.126042 -26.907349 0.000000 0.000002 0.000001 0.230303 1.862481 -10.729467 1.068010 3.688410 -32.287766 0.032250 0.667236 -5.537791 -0.000003 0.000000 0.000004 3.845857 13.152644 -17.061336 0.135451 -2.666407 -12.092457 0.008442 0.341602 -2.831885 0.000000 -0.000002 0.000003 -0.086310 -3.827438 -0.920995 14.671531 45.393232 44.442214 -0.000018 50.497836 0.000016 -13.427684 -3.647864 2.060100 0.777315 -3.318289 35.399248 3.737904 -6.165365 62.423722 0.308070 -2.041434 17.013678 0.000001 -0.000001 -0.000003 -8.861960 -2.161749 -14.298675 9.016887 -15.594877 1.110085 3.094499 -0.090833 -0.572484 0.000001 0.000003 0.000001 -0.151901 -0.964137 21.892419 1.195428 -3.903100 34.045358 0.059207 -0.907357 7.467110 0.000001 -0.000001 0.000003 7.603948 -9.074022 53.708332 3.698436 -6.144689 62.055656 0.074619 -1.480886 12.100407 -0.000000 0.000001 -0.000001 5.569087 -6.824917 74.894397 2.170175 -5.050496 46.484218 0.133494 -1.358675 11.222455 -0.000002 0.000002 0.000002 -68.711054 -12.023234 13.651489 42.893769 1.556121 5.912193 -0.640859 -0.208907 1.339149 -1.124788 0.000086 -0.099846 0.000000 -0.000000 -0.000000 -58.181382 -17.770431 0.487250 25.267293 -12.378670 7.538623 11.461531 -18.417972 3.833010 -3.805281 0.168017 -4.241761 -0.000000 -0.000001 0.000000 
-10.155006 187.970703 -110.600922 26.994103 9.031097 -20.280404 14.621895 -0.683255 -6.159295 6.964837 -0.045647 -2.971539 6.960732 -0.057350 -2.980259 8.632371 0.708507 -3.073863 -3.408234 -1.836310 6.381464 0.000001 0.000000 -0.000001 0.000001 0.000000 -0.000001 0.000001 0.000000 -0.000001 0.972022 -8.529058 -1.076919 -23.743437 -40.729108 -49.327776 0.000018 -46.278309 0.000011 3.047900 -12.873626 36.500200 -0.330191 -2.010182 -7.776958 1.795455 4.641382 -42.278103 0.112114 1.240018 -10.332791 -0.000002 -0.000001 0.000003 -13.880159 -11.708621 -6.032317 3.875268 7.215228 0.688601 13.000642 30.586728 -5.099268 -0.000001 0.000001 -0.000001 -1.438784 -5.468605 -13.419324 2.355001 5.188460 -48.802129 0.725292 3.080939 -26.487912 -0.000002 0.000000 -0.000000 0.173864 1.581405 -10.229480 0.947708 3.491207 -30.366809 0.026406 0.603602 -5.008275 -0.000000 -0.000003 0.000001 4.011290 13.546083 -17.229381 0.106388 -2.809044 -10.887590 0.010078 0.373226 -3.094274 -0.000001 0.000003 0.000000 -0.098432 -4.073049 -0.760641 16.182484 45.704757 43.938501 -0.000002 53.562753 0.000014 -11.784521 -5.094625 2.154269 0.882722 -3.474863 35.778296 3.673333 -6.131398 61.820916 0.305750 -2.034706 16.955402 0.000001 0.000003 -0.000001 -8.595163 -2.833899 -13.700725 9.587334 -16.480369 1.282349 3.445448 -0.685793 -0.541510 -0.000001 -0.000001 -0.000000 -0.111143 -1.120884 22.600700 1.173144 -3.870026 33.717048 0.060225 -0.915059 7.530929 0.000002 -0.000001 0.000003 7.546156 -9.036557 53.672122 3.663025 -6.125880 61.724297 0.074284 -1.482755 12.114683 -0.000000 0.000001 -0.000002 5.433835 -6.792249 74.307008 2.146401 -5.027856 46.213459 0.134775 -1.365179 11.276839 -0.000001 0.000000 0.000004 -67.066399 -10.843181 12.959705 40.357153 -1.883576 5.706319 0.770106 -0.138874 1.050619 -1.337972 0.000085 -0.093513 0.000000 -0.000000 0.000001 -57.199826 -15.825239 -0.715530 25.672432 -12.285740 7.117533 13.541510 -16.063673 4.416692 -6.140092 0.147245 -3.970231 -0.000000 0.000002 -0.000000 
